<?xml version="1.0" encoding="UTF-8" standalone="no"?>
<!DOCTYPE svg PUBLIC "-//W3C//DTD SVG 1.1//EN"
 "http://www.w3.org/Graphics/SVG/1.1/DTD/svg11.dtd">
<!-- Generated by graphviz version 2.38.0 (20140413.2041)
 -->
<!-- Title: DD Pages: 1 -->
<svg width="540pt" height="531pt"
 viewBox="0.00 0.00 540.00 531.16" xmlns="http://www.w3.org/2000/svg" xmlns:xlink="http://www.w3.org/1999/xlink">
<g id="graph0" class="graph" transform="scale(0.376176 0.376176) rotate(0) translate(4 1408)">
<title>DD</title>
<polygon fill="white" stroke="none" points="-4,4 -4,-1408 1431.5,-1408 1431.5,4 -4,4"/>
<!-- CONST NODES -->
<!--  0  -->
<g id="node2" class="node"><title> 0 </title>
<text text-anchor="middle" x="55" y="-1310.3" font-family="Times,serif" font-size="14.00"> 0 </text>
</g>
<!--  1  -->
<g id="node3" class="node"><title> 1 </title>
<text text-anchor="middle" x="55" y="-1238.3" font-family="Times,serif" font-size="14.00"> 1 </text>
</g>
<!--  0 &#45;&gt; 1  -->
<!--  2  -->
<g id="node4" class="node"><title> 2 </title>
<text text-anchor="middle" x="55" y="-1166.3" font-family="Times,serif" font-size="14.00"> 2 </text>
</g>
<!--  1 &#45;&gt; 2  -->
<!--  3  -->
<g id="node5" class="node"><title> 3 </title>
<text text-anchor="middle" x="55" y="-1094.3" font-family="Times,serif" font-size="14.00"> 3 </text>
</g>
<!--  2 &#45;&gt; 3  -->
<!--  4  -->
<g id="node6" class="node"><title> 4 </title>
<text text-anchor="middle" x="55" y="-1022.3" font-family="Times,serif" font-size="14.00"> 4 </text>
</g>
<!--  3 &#45;&gt; 4  -->
<!--  5  -->
<g id="node7" class="node"><title> 5 </title>
<text text-anchor="middle" x="55" y="-950.3" font-family="Times,serif" font-size="14.00"> 5 </text>
</g>
<!--  4 &#45;&gt; 5  -->
<!--  6  -->
<g id="node8" class="node"><title> 6 </title>
<text text-anchor="middle" x="55" y="-878.3" font-family="Times,serif" font-size="14.00"> 6 </text>
</g>
<!--  5 &#45;&gt; 6  -->
<!--  7  -->
<g id="node9" class="node"><title> 7 </title>
<text text-anchor="middle" x="55" y="-806.3" font-family="Times,serif" font-size="14.00"> 7 </text>
</g>
<!--  6 &#45;&gt; 7  -->
<!--  8  -->
<g id="node10" class="node"><title> 8 </title>
<text text-anchor="middle" x="55" y="-734.3" font-family="Times,serif" font-size="14.00"> 8 </text>
</g>
<!--  7 &#45;&gt; 8  -->
<!--  9  -->
<g id="node11" class="node"><title> 9 </title>
<text text-anchor="middle" x="55" y="-662.3" font-family="Times,serif" font-size="14.00"> 9 </text>
</g>
<!--  8 &#45;&gt; 9  -->
<!--  10  -->
<g id="node12" class="node"><title> 10 </title>
<text text-anchor="middle" x="55" y="-590.3" font-family="Times,serif" font-size="14.00"> 10 </text>
</g>
<!--  9 &#45;&gt; 10  -->
<!--  11  -->
<g id="node13" class="node"><title> 11 </title>
<text text-anchor="middle" x="55" y="-518.3" font-family="Times,serif" font-size="14.00"> 11 </text>
</g>
<!--  10 &#45;&gt; 11  -->
<!--  12  -->
<g id="node14" class="node"><title> 12 </title>
<text text-anchor="middle" x="55" y="-446.3" font-family="Times,serif" font-size="14.00"> 12 </text>
</g>
<!--  11 &#45;&gt; 12  -->
<!--  13  -->
<g id="node15" class="node"><title> 13 </title>
<text text-anchor="middle" x="55" y="-374.3" font-family="Times,serif" font-size="14.00"> 13 </text>
</g>
<!--  12 &#45;&gt; 13  -->
<!--  14  -->
<g id="node16" class="node"><title> 14 </title>
<text text-anchor="middle" x="55" y="-302.3" font-family="Times,serif" font-size="14.00"> 14 </text>
</g>
<!--  13 &#45;&gt; 14  -->
<!--  15  -->
<g id="node17" class="node"><title> 15 </title>
<text text-anchor="middle" x="55" y="-230.3" font-family="Times,serif" font-size="14.00"> 15 </text>
</g>
<!--  14 &#45;&gt; 15  -->
<!--  16  -->
<g id="node18" class="node"><title> 16 </title>
<text text-anchor="middle" x="55" y="-158.3" font-family="Times,serif" font-size="14.00"> 16 </text>
</g>
<!--  15 &#45;&gt; 16  -->
<!--  17  -->
<g id="node19" class="node"><title> 17 </title>
<text text-anchor="middle" x="55" y="-86.3" font-family="Times,serif" font-size="14.00"> 17 </text>
</g>
<!--  16 &#45;&gt; 17  -->
<!--  17 &#45;&gt;CONST NODES -->
<!-- F0 -->
<g id="node20" class="node"><title>F0</title>
<polygon fill="none" stroke="black" points="1232,-1404 1178,-1404 1178,-1368 1232,-1368 1232,-1404"/>
<text text-anchor="middle" x="1205" y="-1382.3" font-family="Times,serif" font-size="14.00">F0</text>
</g>
<!-- 0x282 -->
<g id="node21" class="node"><title>0x282</title>
<ellipse fill="none" stroke="black" cx="1205" cy="-1314" rx="32.4942" ry="18"/>
<text text-anchor="middle" x="1205" y="-1310.3" font-family="Times,serif" font-size="14.00">0x282</text>
</g>
<!-- F0&#45;&gt;0x282 -->
<g id="edge19" class="edge"><title>F0&#45;&gt;0x282</title>
<path fill="none" stroke="black" stroke-dasharray="1,5" d="M1205,-1367.7C1205,-1356.85 1205,-1342.92 1205,-1332.1"/>
</g>
<!-- 0x281 -->
<g id="node22" class="node"><title>0x281</title>
<ellipse fill="none" stroke="black" cx="1122" cy="-1242" rx="32.4942" ry="18"/>
<text text-anchor="middle" x="1122" y="-1238.3" font-family="Times,serif" font-size="14.00">0x281</text>
</g>
<!-- 0x282&#45;&gt;0x281 -->
<g id="edge20" class="edge"><title>0x282&#45;&gt;0x281</title>
<path fill="none" stroke="black" d="M1187.8,-1298.5C1173.56,-1286.48 1153.41,-1269.49 1139.18,-1257.49"/>
</g>
<!-- 0x122 -->
<g id="node24" class="node"><title>0x122</title>
<ellipse fill="none" stroke="black" cx="1395" cy="-1098" rx="32.4942" ry="18"/>
<text text-anchor="middle" x="1395" y="-1094.3" font-family="Times,serif" font-size="14.00">0x122</text>
</g>
<!-- 0x282&#45;&gt;0x122 -->
<g id="edge21" class="edge"><title>0x282&#45;&gt;0x122</title>
<path fill="none" stroke="black" stroke-dasharray="1,5" d="M1218.66,-1297.61C1253.64,-1258.22 1346.09,-1154.09 1381.2,-1114.54"/>
</g>
<!-- 0x280 -->
<g id="node23" class="node"><title>0x280</title>
<ellipse fill="none" stroke="black" cx="1122" cy="-1170" rx="32.4942" ry="18"/>
<text text-anchor="middle" x="1122" y="-1166.3" font-family="Times,serif" font-size="14.00">0x280</text>
</g>
<!-- 0x281&#45;&gt;0x280 -->
<g id="edge22" class="edge"><title>0x281&#45;&gt;0x280</title>
<path fill="none" stroke="black" d="M1122,-1223.7C1122,-1212.85 1122,-1198.92 1122,-1188.1"/>
</g>
<!-- 0x11b -->
<g id="node58" class="node"><title>0x11b</title>
<polygon fill="none" stroke="black" points="800,-36 746,-36 746,-0 800,-0 800,-36"/>
<text text-anchor="middle" x="773" y="-14.3" font-family="Times,serif" font-size="14.00">1</text>
</g>
<!-- 0x281&#45;&gt;0x11b -->
<g id="edge23" class="edge"><title>0x281&#45;&gt;0x11b</title>
<path fill="none" stroke="black" stroke-dasharray="5,2" d="M1089.48,-1239.94C916.256,-1233.9 110,-1200.35 110,-1099 110,-1099 110,-1099 110,-161 110,-116.058 120.434,-96.6695 158,-72 207.716,-39.3514 633.694,-23.471 745.968,-19.8286"/>
</g>
<!-- 0x27f -->
<g id="node25" class="node"><title>0x27f</title>
<ellipse fill="none" stroke="black" cx="488" cy="-1026" rx="31.3957" ry="18"/>
<text text-anchor="middle" x="488" y="-1022.3" font-family="Times,serif" font-size="14.00">0x27f</text>
</g>
<!-- 0x280&#45;&gt;0x27f -->
<g id="edge24" class="edge"><title>0x280&#45;&gt;0x27f</title>
<path fill="none" stroke="black" d="M1092.27,-1162.34C985.41,-1138.41 621.557,-1056.91 516.573,-1033.4"/>
</g>
<!-- 0x280&#45;&gt;0x11b -->
<g id="edge25" class="edge"><title>0x280&#45;&gt;0x11b</title>
<path fill="none" stroke="black" stroke-dasharray="5,2" d="M1142.98,-1156.16C1198.49,-1120.4 1345,-1013.65 1345,-883 1345,-883 1345,-883 1345,-161 1345,-113.786 1327.3,-96.5972 1287,-72 1204.11,-21.4079 893.801,-18.4813 800.015,-18.7826"/>
</g>
<!-- 0x122&#45;&gt;0x11b -->
<g id="edge26" class="edge"><title>0x122&#45;&gt;0x11b</title>
<path fill="none" stroke="black" d="M1388.69,-1079.95C1384.53,-1053.3 1383,-1000.12 1383,-955 1383,-955 1383,-955 1383,-161 1383,-118.813 1383.51,-97.6304 1350,-72 1305.58,-38.0215 908.309,-23.3913 800.036,-19.872"/>
</g>
<!-- 0x122&#45;&gt;0x11b -->
<g id="edge27" class="edge"><title>0x122&#45;&gt;0x11b</title>
<path fill="none" stroke="black" stroke-dasharray="1,5" d="M1400.12,-1079.95C1402.53,-1053.3 1401,-1000.12 1401,-955 1401,-955 1401,-955 1401,-161 1401,-118.813 1401.51,-97.6304 1368,-72 1322.72,-37.3621 910.757,-22.8307 800.125,-19.6796"/>
</g>
<!-- 0x27e -->
<g id="node26" class="node"><title>0x27e</title>
<ellipse fill="none" stroke="black" cx="488" cy="-954" rx="32.4942" ry="18"/>
<text text-anchor="middle" x="488" y="-950.3" font-family="Times,serif" font-size="14.00">0x27e</text>
</g>
<!-- 0x27f&#45;&gt;0x27e -->
<g id="edge29" class="edge"><title>0x27f&#45;&gt;0x27e</title>
<path fill="none" stroke="black" stroke-dasharray="1,5" d="M488,-1007.7C488,-996.846 488,-982.917 488,-972.104"/>
</g>
<!-- 0x132 -->
<g id="node33" class="node"><title>0x132</title>
<ellipse fill="none" stroke="black" cx="208" cy="-450" rx="32.4942" ry="18"/>
<text text-anchor="middle" x="208" y="-446.3" font-family="Times,serif" font-size="14.00">0x132</text>
</g>
<!-- 0x27f&#45;&gt;0x132 -->
<g id="edge28" class="edge"><title>0x27f&#45;&gt;0x132</title>
<path fill="none" stroke="black" d="M457.142,-1022.95C386.485,-1016.42 219,-989.674 219,-883 219,-883 219,-883 219,-593 219,-547.75 213.379,-494.631 210.173,-468.016"/>
</g>
<!-- 0x27d -->
<g id="node27" class="node"><title>0x27d</title>
<ellipse fill="none" stroke="black" cx="697" cy="-882" rx="32.4942" ry="18"/>
<text text-anchor="middle" x="697" y="-878.3" font-family="Times,serif" font-size="14.00">0x27d</text>
</g>
<!-- 0x27e&#45;&gt;0x27d -->
<g id="edge31" class="edge"><title>0x27e&#45;&gt;0x27d</title>
<path fill="none" stroke="black" stroke-dasharray="5,2" d="M515.323,-943.849C555.488,-930.396 630.022,-905.433 670.001,-892.043"/>
</g>
<!-- 0x27e&#45;&gt;0x11b -->
<g id="edge30" class="edge"><title>0x27e&#45;&gt;0x11b</title>
<path fill="none" stroke="black" d="M456.946,-947.847C396.303,-935.82 268,-899.874 268,-811 268,-811 268,-811 268,-449 268,-353.474 248,-330.526 248,-235 248,-235 248,-235 248,-161 248,-115.846 259.459,-97.0923 297,-72 371.227,-22.3861 655.881,-18.7151 745.688,-18.8203"/>
</g>
<!-- 0x27c -->
<g id="node28" class="node"><title>0x27c</title>
<ellipse fill="none" stroke="black" cx="697" cy="-810" rx="32.4942" ry="18"/>
<text text-anchor="middle" x="697" y="-806.3" font-family="Times,serif" font-size="14.00">0x27c</text>
</g>
<!-- 0x27d&#45;&gt;0x27c -->
<g id="edge33" class="edge"><title>0x27d&#45;&gt;0x27c</title>
<path fill="none" stroke="black" stroke-dasharray="1,5" d="M697,-863.697C697,-852.846 697,-838.917 697,-828.104"/>
</g>
<!-- 0x27d&#45;&gt;0x11b -->
<g id="edge32" class="edge"><title>0x27d&#45;&gt;0x11b</title>
<path fill="none" stroke="black" d="M729.796,-880.461C856.5,-877.51 1307,-858.608 1307,-739 1307,-739 1307,-739 1307,-161 1307,-114.501 1291.3,-96.8465 1252,-72 1175.97,-23.9399 889.791,-19.2229 800.073,-18.9447"/>
</g>
<!-- 0x27b -->
<g id="node29" class="node"><title>0x27b</title>
<ellipse fill="none" stroke="black" cx="928" cy="-738" rx="32.4942" ry="18"/>
<text text-anchor="middle" x="928" y="-734.3" font-family="Times,serif" font-size="14.00">0x27b</text>
</g>
<!-- 0x27c&#45;&gt;0x27b -->
<g id="edge35" class="edge"><title>0x27c&#45;&gt;0x27b</title>
<path fill="none" stroke="black" stroke-dasharray="5,2" d="M724.864,-800.556C769.263,-787.102 855.576,-760.947 900.037,-747.474"/>
</g>
<!-- 0x27c&#45;&gt;0x132 -->
<g id="edge34" class="edge"><title>0x27c&#45;&gt;0x132</title>
<path fill="none" stroke="black" d="M665.846,-804.627C602.793,-793.836 466,-759.739 466,-667 466,-667 466,-667 466,-593 466,-490.872 308.923,-461.666 239.895,-453.762"/>
</g>
<!-- 0x27a -->
<g id="node30" class="node"><title>0x27a</title>
<ellipse fill="none" stroke="black" cx="928" cy="-666" rx="32.4942" ry="18"/>
<text text-anchor="middle" x="928" y="-662.3" font-family="Times,serif" font-size="14.00">0x27a</text>
</g>
<!-- 0x27b&#45;&gt;0x27a -->
<g id="edge37" class="edge"><title>0x27b&#45;&gt;0x27a</title>
<path fill="none" stroke="black" stroke-dasharray="5,2" d="M928,-719.697C928,-708.846 928,-694.917 928,-684.104"/>
</g>
<!-- 0x18e -->
<g id="node34" class="node"><title>0x18e</title>
<ellipse fill="none" stroke="black" cx="1149" cy="-450" rx="32.4942" ry="18"/>
<text text-anchor="middle" x="1149" y="-446.3" font-family="Times,serif" font-size="14.00">0x18e</text>
</g>
<!-- 0x27b&#45;&gt;0x18e -->
<g id="edge36" class="edge"><title>0x27b&#45;&gt;0x18e</title>
<path fill="none" stroke="black" d="M940.202,-721.232C948.357,-710.693 959.324,-696.517 969,-684 1032.15,-602.309 1107.71,-504.466 1136.78,-466.824"/>
</g>
<!-- 0x279 -->
<g id="node31" class="node"><title>0x279</title>
<ellipse fill="none" stroke="black" cx="884" cy="-594" rx="32.4942" ry="18"/>
<text text-anchor="middle" x="884" y="-590.3" font-family="Times,serif" font-size="14.00">0x279</text>
</g>
<!-- 0x27a&#45;&gt;0x279 -->
<g id="edge39" class="edge"><title>0x27a&#45;&gt;0x279</title>
<path fill="none" stroke="black" stroke-dasharray="5,2" d="M917.795,-648.765C910.687,-637.456 901.246,-622.437 894.15,-611.147"/>
</g>
<!-- 0x1ba -->
<g id="node38" class="node"><title>0x1ba</title>
<ellipse fill="none" stroke="black" cx="973" cy="-450" rx="32.4942" ry="18"/>
<text text-anchor="middle" x="973" y="-446.3" font-family="Times,serif" font-size="14.00">0x1ba</text>
</g>
<!-- 0x27a&#45;&gt;0x1ba -->
<g id="edge38" class="edge"><title>0x27a&#45;&gt;0x1ba</title>
<path fill="none" stroke="black" d="M931.606,-647.849C940.053,-607.68 961.037,-507.89 969.439,-467.935"/>
</g>
<!-- 0x278 -->
<g id="node32" class="node"><title>0x278</title>
<ellipse fill="none" stroke="black" cx="686" cy="-522" rx="32.4942" ry="18"/>
<text text-anchor="middle" x="686" y="-518.3" font-family="Times,serif" font-size="14.00">0x278</text>
</g>
<!-- 0x279&#45;&gt;0x278 -->
<g id="edge41" class="edge"><title>0x279&#45;&gt;0x278</title>
<path fill="none" stroke="black" stroke-dasharray="5,2" d="M857.297,-583.559C819.402,-570.162 750.432,-545.779 712.596,-532.402"/>
</g>
<!-- 0x1f2 -->
<g id="node35" class="node"><title>0x1f2</title>
<ellipse fill="none" stroke="black" cx="884" cy="-450" rx="31.3957" ry="18"/>
<text text-anchor="middle" x="884" y="-446.3" font-family="Times,serif" font-size="14.00">0x1f2</text>
</g>
<!-- 0x279&#45;&gt;0x1f2 -->
<g id="edge40" class="edge"><title>0x279&#45;&gt;0x1f2</title>
<path fill="none" stroke="black" d="M884,-575.871C884,-548.578 884,-495.52 884,-468.189"/>
</g>
<!-- 0x236 -->
<g id="node36" class="node"><title>0x236</title>
<ellipse fill="none" stroke="black" cx="686" cy="-450" rx="32.4942" ry="18"/>
<text text-anchor="middle" x="686" y="-446.3" font-family="Times,serif" font-size="14.00">0x236</text>
</g>
<!-- 0x278&#45;&gt;0x236 -->
<g id="edge42" class="edge"><title>0x278&#45;&gt;0x236</title>
<path fill="none" stroke="black" d="M686,-503.697C686,-492.846 686,-478.917 686,-468.104"/>
</g>
<!-- 0x277 -->
<g id="node37" class="node"><title>0x277</title>
<ellipse fill="none" stroke="black" cx="482" cy="-450" rx="32.4942" ry="18"/>
<text text-anchor="middle" x="482" y="-446.3" font-family="Times,serif" font-size="14.00">0x277</text>
</g>
<!-- 0x278&#45;&gt;0x277 -->
<g id="edge43" class="edge"><title>0x278&#45;&gt;0x277</title>
<path fill="none" stroke="black" stroke-dasharray="5,2" d="M658.91,-511.705C619.784,-498.279 547.884,-473.607 508.877,-460.222"/>
</g>
<!-- 0x12c -->
<g id="node44" class="node"><title>0x12c</title>
<ellipse fill="none" stroke="black" cx="208" cy="-378" rx="32.4942" ry="18"/>
<text text-anchor="middle" x="208" y="-374.3" font-family="Times,serif" font-size="14.00">0x12c</text>
</g>
<!-- 0x132&#45;&gt;0x12c -->
<g id="edge45" class="edge"><title>0x132&#45;&gt;0x12c</title>
<path fill="none" stroke="black" stroke-dasharray="1,5" d="M208,-431.697C208,-420.846 208,-406.917 208,-396.104"/>
</g>
<!-- 0x132&#45;&gt;0x11b -->
<g id="edge44" class="edge"><title>0x132&#45;&gt;0x11b</title>
<path fill="none" stroke="black" d="M193.009,-433.546C184.161,-423.586 173.462,-409.93 167,-396 149.978,-359.309 148,-347.447 148,-307 148,-307 148,-307 148,-161 148,-114.501 163.48,-96.502 203,-72 249.563,-43.1313 638.789,-24.6735 745.843,-20.1095"/>
</g>
<!-- 0x18d -->
<g id="node42" class="node"><title>0x18d</title>
<ellipse fill="none" stroke="black" cx="1209" cy="-378" rx="32.4942" ry="18"/>
<text text-anchor="middle" x="1209" y="-374.3" font-family="Times,serif" font-size="14.00">0x18d</text>
</g>
<!-- 0x18e&#45;&gt;0x18d -->
<g id="edge47" class="edge"><title>0x18e&#45;&gt;0x18d</title>
<path fill="none" stroke="black" stroke-dasharray="1,5" d="M1162.32,-433.465C1172.26,-421.865 1185.79,-406.082 1195.72,-394.492"/>
</g>
<!-- 0x18e&#45;&gt;0x11b -->
<g id="edge46" class="edge"><title>0x18e&#45;&gt;0x11b</title>
<path fill="none" stroke="black" d="M1149.97,-431.818C1153.36,-363.98 1161.6,-116.308 1104,-72 1056.43,-35.4087 870.66,-23.376 800.254,-20.0811"/>
</g>
<!-- 0x1f1 -->
<g id="node41" class="node"><title>0x1f1</title>
<ellipse fill="none" stroke="black" cx="876" cy="-378" rx="31.3957" ry="18"/>
<text text-anchor="middle" x="876" y="-374.3" font-family="Times,serif" font-size="14.00">0x1f1</text>
</g>
<!-- 0x1f2&#45;&gt;0x1f1 -->
<g id="edge49" class="edge"><title>0x1f2&#45;&gt;0x1f1</title>
<path fill="none" stroke="black" stroke-dasharray="1,5" d="M882.022,-431.697C880.782,-420.846 879.19,-406.917 877.955,-396.104"/>
</g>
<!-- 0x1f2&#45;&gt;0x11b -->
<g id="edge48" class="edge"><title>0x1f2&#45;&gt;0x11b</title>
<path fill="none" stroke="black" d="M896.571,-433.362C903.805,-423.332 912.194,-409.668 916,-396 946.058,-288.064 940.589,-251.498 909,-144 898.857,-109.481 897.225,-97.6535 872,-72 851.77,-51.4266 821.842,-36.9271 800.191,-28.3547"/>
</g>
<!-- 0x235 -->
<g id="node39" class="node"><title>0x235</title>
<ellipse fill="none" stroke="black" cx="656" cy="-378" rx="32.4942" ry="18"/>
<text text-anchor="middle" x="656" y="-374.3" font-family="Times,serif" font-size="14.00">0x235</text>
</g>
<!-- 0x236&#45;&gt;0x235 -->
<g id="edge51" class="edge"><title>0x236&#45;&gt;0x235</title>
<path fill="none" stroke="black" stroke-dasharray="1,5" d="M678.89,-432.411C674.177,-421.414 668.012,-407.027 663.267,-395.956"/>
</g>
<!-- 0x236&#45;&gt;0x11b -->
<g id="edge50" class="edge"><title>0x236&#45;&gt;0x11b</title>
<path fill="none" stroke="black" d="M691.927,-432.194C700.67,-405.86 716,-353.11 716,-307 716,-307 716,-307 716,-161 716,-112.918 744.494,-61.842 761.19,-36.0417"/>
</g>
<!-- 0x276 -->
<g id="node40" class="node"><title>0x276</title>
<ellipse fill="none" stroke="black" cx="365" cy="-378" rx="32.4942" ry="18"/>
<text text-anchor="middle" x="365" y="-374.3" font-family="Times,serif" font-size="14.00">0x276</text>
</g>
<!-- 0x277&#45;&gt;0x276 -->
<g id="edge53" class="edge"><title>0x277&#45;&gt;0x276</title>
<path fill="none" stroke="black" stroke-dasharray="1,5" d="M460.812,-436.324C439.74,-423.716 407.581,-404.476 386.426,-391.819"/>
</g>
<!-- 0x277&#45;&gt;0x11b -->
<g id="edge52" class="edge"><title>0x277&#45;&gt;0x11b</title>
<path fill="none" stroke="black" d="M482,-431.951C482,-405.292 482,-352.115 482,-307 482,-307 482,-307 482,-233 482,-153.873 491.444,-114.795 558,-72 617.499,-33.7434 702.537,-23.1008 745.665,-20.1405"/>
</g>
<!-- 0x1b9 -->
<g id="node43" class="node"><title>0x1b9</title>
<ellipse fill="none" stroke="black" cx="1042" cy="-378" rx="32.4942" ry="18"/>
<text text-anchor="middle" x="1042" y="-374.3" font-family="Times,serif" font-size="14.00">0x1b9</text>
</g>
<!-- 0x1ba&#45;&gt;0x1b9 -->
<g id="edge55" class="edge"><title>0x1ba&#45;&gt;0x1b9</title>
<path fill="none" stroke="black" stroke-dasharray="1,5" d="M987.972,-433.811C999.546,-422.07 1015.49,-405.893 1027.06,-394.159"/>
</g>
<!-- 0x1ba&#45;&gt;0x11b -->
<g id="edge54" class="edge"><title>0x1ba&#45;&gt;0x11b</title>
<path fill="none" stroke="black" d="M975.549,-431.782C983.274,-372.47 1000.09,-174.65 899,-72 871.857,-44.4395 828.197,-30.4888 800.058,-23.99"/>
</g>
<!-- 0x203 -->
<g id="node49" class="node"><title>0x203</title>
<ellipse fill="none" stroke="black" cx="618" cy="-306" rx="32.4942" ry="18"/>
<text text-anchor="middle" x="618" y="-302.3" font-family="Times,serif" font-size="14.00">0x203</text>
</g>
<!-- 0x235&#45;&gt;0x203 -->
<g id="edge57" class="edge"><title>0x235&#45;&gt;0x203</title>
<path fill="none" stroke="black" stroke-dasharray="1,5" d="M646.995,-360.411C640.937,-349.252 632.985,-334.604 626.941,-323.47"/>
</g>
<!-- 0x235&#45;&gt;0x11b -->
<g id="edge56" class="edge"><title>0x235&#45;&gt;0x11b</title>
<path fill="none" stroke="black" d="M660.346,-360.082C666.758,-333.599 678,-280.653 678,-235 678,-235 678,-235 678,-161 678,-120.031 678.987,-105.894 702,-72 713.06,-55.7109 730.81,-42.4609 745.795,-33.2832"/>
</g>
<!-- 0x244 -->
<g id="node45" class="node"><title>0x244</title>
<ellipse fill="none" stroke="black" cx="365" cy="-306" rx="32.4942" ry="18"/>
<text text-anchor="middle" x="365" y="-302.3" font-family="Times,serif" font-size="14.00">0x244</text>
</g>
<!-- 0x276&#45;&gt;0x244 -->
<g id="edge59" class="edge"><title>0x276&#45;&gt;0x244</title>
<path fill="none" stroke="black" stroke-dasharray="1,5" d="M365,-359.697C365,-348.846 365,-334.917 365,-324.104"/>
</g>
<!-- 0x276&#45;&gt;0x11b -->
<g id="edge58" class="edge"><title>0x276&#45;&gt;0x11b</title>
<path fill="none" stroke="black" d="M349.768,-361.939C326.812,-337.556 286,-286.908 286,-235 286,-235 286,-235 286,-161 286,-113.295 305.344,-96.9574 346,-72 413.562,-30.5256 662.616,-21.3915 745.769,-19.4808"/>
</g>
<!-- 0x1c8 -->
<g id="node46" class="node"><title>0x1c8</title>
<ellipse fill="none" stroke="black" cx="826" cy="-306" rx="32.4942" ry="18"/>
<text text-anchor="middle" x="826" y="-302.3" font-family="Times,serif" font-size="14.00">0x1c8</text>
</g>
<!-- 0x1f1&#45;&gt;0x1c8 -->
<g id="edge61" class="edge"><title>0x1f1&#45;&gt;0x1c8</title>
<path fill="none" stroke="black" stroke-dasharray="1,5" d="M864.654,-361.116C856.587,-349.821 845.783,-334.696 837.648,-323.307"/>
</g>
<!-- 0x1f1&#45;&gt;0x11b -->
<g id="edge60" class="edge"><title>0x1f1&#45;&gt;0x11b</title>
<path fill="none" stroke="black" d="M881.251,-360.092C892.524,-320.948 916.068,-221.523 891,-144 875.528,-96.153 829.302,-57.1382 799.51,-36.0576"/>
</g>
<!-- 0x12d -->
<g id="node48" class="node"><title>0x12d</title>
<ellipse fill="none" stroke="black" cx="1209" cy="-306" rx="32.4942" ry="18"/>
<text text-anchor="middle" x="1209" y="-302.3" font-family="Times,serif" font-size="14.00">0x12d</text>
</g>
<!-- 0x18d&#45;&gt;0x12d -->
<g id="edge63" class="edge"><title>0x18d&#45;&gt;0x12d</title>
<path fill="none" stroke="black" stroke-dasharray="5,2" d="M1209,-359.697C1209,-348.846 1209,-334.917 1209,-324.104"/>
</g>
<!-- 0x18d&#45;&gt;0x11b -->
<g id="edge62" class="edge"><title>0x18d&#45;&gt;0x11b</title>
<path fill="none" stroke="black" d="M1223.99,-361.546C1232.84,-351.586 1243.54,-337.93 1250,-324 1267.02,-287.309 1269,-275.447 1269,-235 1269,-235 1269,-235 1269,-161 1269,-115.41 1256.02,-97.1553 1218,-72 1148.81,-26.2261 886.107,-19.9354 800.296,-19.1109"/>
</g>
<!-- 0x198 -->
<g id="node47" class="node"><title>0x198</title>
<ellipse fill="none" stroke="black" cx="1042" cy="-306" rx="32.4942" ry="18"/>
<text text-anchor="middle" x="1042" y="-302.3" font-family="Times,serif" font-size="14.00">0x198</text>
</g>
<!-- 0x1b9&#45;&gt;0x198 -->
<g id="edge65" class="edge"><title>0x1b9&#45;&gt;0x198</title>
<path fill="none" stroke="black" stroke-dasharray="1,5" d="M1042,-359.697C1042,-348.846 1042,-334.917 1042,-324.104"/>
</g>
<!-- 0x1b9&#45;&gt;0x11b -->
<g id="edge64" class="edge"><title>0x1b9&#45;&gt;0x11b</title>
<path fill="none" stroke="black" d="M1055.78,-361.576C1064.38,-351.41 1075.25,-337.523 1083,-324 1100.16,-294.073 1105.44,-285.868 1112,-252 1127.58,-171.639 1134.64,-125.866 1073,-72 1032.38,-36.4996 865.995,-23.9224 800.077,-20.2777"/>
</g>
<!-- 0x12c&#45;&gt;0x11b -->
<g id="edge66" class="edge"><title>0x12c&#45;&gt;0x11b</title>
<path fill="none" stroke="black" d="M200.992,-360.398C195.616,-333.904 192,-280.416 192,-235 192,-235 192,-235 192,-161 192,-118.813 191.592,-97.7612 225,-72 266.279,-40.1694 640.469,-23.7158 745.704,-19.8829"/>
</g>
<!-- 0x12c&#45;&gt;0x11b -->
<g id="edge67" class="edge"><title>0x12c&#45;&gt;0x11b</title>
<path fill="none" stroke="black" stroke-dasharray="1,5" d="M212.329,-359.964C213.577,-333.323 210,-280.169 210,-235 210,-235 210,-235 210,-161 210,-118.813 209.592,-97.7612 243,-72 283.442,-40.8153 643.419,-24.3899 745.969,-20.1319"/>
</g>
<!-- 0x243 -->
<g id="node50" class="node"><title>0x243</title>
<ellipse fill="none" stroke="black" cx="384" cy="-234" rx="32.4942" ry="18"/>
<text text-anchor="middle" x="384" y="-230.3" font-family="Times,serif" font-size="14.00">0x243</text>
</g>
<!-- 0x244&#45;&gt;0x243 -->
<g id="edge69" class="edge"><title>0x244&#45;&gt;0x243</title>
<path fill="none" stroke="black" stroke-dasharray="5,2" d="M369.599,-288.055C372.543,-277.211 376.35,-263.183 379.311,-252.275"/>
</g>
<!-- 0x244&#45;&gt;0x11b -->
<g id="edge68" class="edge"><title>0x244&#45;&gt;0x11b</title>
<path fill="none" stroke="black" d="M356.098,-288.352C351.165,-278.17 345.531,-264.702 343,-252 327.019,-171.814 319.724,-126.134 381,-72 435.298,-24.0311 666.389,-19.1311 745.954,-18.8906"/>
</g>
<!-- 0x1c7 -->
<g id="node51" class="node"><title>0x1c7</title>
<ellipse fill="none" stroke="black" cx="826" cy="-234" rx="32.4942" ry="18"/>
<text text-anchor="middle" x="826" y="-230.3" font-family="Times,serif" font-size="14.00">0x1c7</text>
</g>
<!-- 0x1c8&#45;&gt;0x1c7 -->
<g id="edge71" class="edge"><title>0x1c8&#45;&gt;0x1c7</title>
<path fill="none" stroke="black" stroke-dasharray="5,2" d="M826,-287.697C826,-276.846 826,-262.917 826,-252.104"/>
</g>
<!-- 0x1c8&#45;&gt;0x11b -->
<g id="edge70" class="edge"><title>0x1c8&#45;&gt;0x11b</title>
<path fill="none" stroke="black" d="M810.217,-289.876C801.071,-280.04 790.337,-266.399 785,-252 756.705,-175.66 765.445,-75.56 770.506,-36.072"/>
</g>
<!-- 0x12e -->
<g id="node52" class="node"><title>0x12e</title>
<ellipse fill="none" stroke="black" cx="1071" cy="-234" rx="32.4942" ry="18"/>
<text text-anchor="middle" x="1071" y="-230.3" font-family="Times,serif" font-size="14.00">0x12e</text>
</g>
<!-- 0x198&#45;&gt;0x12e -->
<g id="edge73" class="edge"><title>0x198&#45;&gt;0x12e</title>
<path fill="none" stroke="black" stroke-dasharray="1,5" d="M1049.02,-288.055C1053.58,-277.049 1059.5,-262.764 1064.04,-251.789"/>
</g>
<!-- 0x198&#45;&gt;0x11b -->
<g id="edge72" class="edge"><title>0x198&#45;&gt;0x11b</title>
<path fill="none" stroke="black" d="M1037.86,-287.867C1035.42,-277.514 1032.36,-264.035 1030,-252 1014.37,-172.416 1055.48,-131.16 1000,-72 972.871,-43.0701 854.22,-27.3715 800.093,-21.6019"/>
</g>
<!-- 0x12d&#45;&gt;0x11b -->
<g id="edge74" class="edge"><title>0x12d&#45;&gt;0x11b</title>
<path fill="none" stroke="black" d="M1208.94,-287.713C1214.06,-244.57 1232.34,-131.368 1174,-72 1121.49,-18.569 881.998,-17.0354 800.259,-18.2895"/>
</g>
<!-- 0x12d&#45;&gt;0x11b -->
<g id="edge75" class="edge"><title>0x12d&#45;&gt;0x11b</title>
<path fill="none" stroke="black" stroke-dasharray="1,5" d="M1217.55,-288.341C1231.88,-245.678 1250.63,-131.658 1192,-72 1137.79,-16.8413 884.314,-16.9905 800.099,-18.4182"/>
</g>
<!-- 0x202 -->
<g id="node53" class="node"><title>0x202</title>
<ellipse fill="none" stroke="black" cx="580" cy="-234" rx="32.4942" ry="18"/>
<text text-anchor="middle" x="580" y="-230.3" font-family="Times,serif" font-size="14.00">0x202</text>
</g>
<!-- 0x203&#45;&gt;0x202 -->
<g id="edge77" class="edge"><title>0x203&#45;&gt;0x202</title>
<path fill="none" stroke="black" stroke-dasharray="5,2" d="M608.995,-288.411C602.937,-277.252 594.985,-262.604 588.941,-251.47"/>
</g>
<!-- 0x203&#45;&gt;0x11b -->
<g id="edge76" class="edge"><title>0x203&#45;&gt;0x11b</title>
<path fill="none" stroke="black" d="M619.423,-287.774C623.683,-239.831 637.699,-106.129 664,-72 684.165,-45.8324 720.593,-31.827 745.752,-24.908"/>
</g>
<!-- 0x242 -->
<g id="node55" class="node"><title>0x242</title>
<ellipse fill="none" stroke="black" cx="422" cy="-162" rx="32.4942" ry="18"/>
<text text-anchor="middle" x="422" y="-158.3" font-family="Times,serif" font-size="14.00">0x242</text>
</g>
<!-- 0x243&#45;&gt;0x242 -->
<g id="edge79" class="edge"><title>0x243&#45;&gt;0x242</title>
<path fill="none" stroke="black" stroke-dasharray="5,2" d="M393.005,-216.411C399.063,-205.252 407.015,-190.604 413.059,-179.47"/>
</g>
<!-- 0x243&#45;&gt;0x11b -->
<g id="edge78" class="edge"><title>0x243&#45;&gt;0x11b</title>
<path fill="none" stroke="black" d="M380.279,-216.044C373.969,-182.172 365.732,-106.438 409,-72 461.215,-30.4414 670.786,-21.4147 745.977,-19.501"/>
</g>
<!-- 0x12f -->
<g id="node56" class="node"><title>0x12f</title>
<ellipse fill="none" stroke="black" cx="851" cy="-162" rx="31.3957" ry="18"/>
<text text-anchor="middle" x="851" y="-158.3" font-family="Times,serif" font-size="14.00">0x12f</text>
</g>
<!-- 0x1c7&#45;&gt;0x12f -->
<g id="edge81" class="edge"><title>0x1c7&#45;&gt;0x12f</title>
<path fill="none" stroke="black" stroke-dasharray="1,5" d="M832.052,-216.055C835.982,-205.049 841.084,-190.764 845.004,-179.789"/>
</g>
<!-- 0x1c7&#45;&gt;0x11b -->
<g id="edge80" class="edge"><title>0x1c7&#45;&gt;0x11b</title>
<path fill="none" stroke="black" d="M820.944,-215.866C817.941,-205.513 814.121,-192.033 811,-180 797.516,-128.015 783.455,-66.0698 776.855,-36.4539"/>
</g>
<!-- 0x12e&#45;&gt;0x11b -->
<g id="edge82" class="edge"><title>0x12e&#45;&gt;0x11b</title>
<path fill="none" stroke="black" d="M1067.94,-215.861C1066.96,-183 1068.13,-110.946 1029,-72 996.576,-39.7306 859.791,-25.8702 800.423,-21.097"/>
</g>
<!-- 0x12e&#45;&gt;0x11b -->
<g id="edge83" class="edge"><title>0x12e&#45;&gt;0x11b</title>
<path fill="none" stroke="black" stroke-dasharray="1,5" d="M1078.06,-216.367C1084.95,-183.745 1086.33,-111.148 1047,-72 1012.83,-37.993 862.758,-24.4309 800.224,-20.4036"/>
</g>
<!-- 0x201 -->
<g id="node54" class="node"><title>0x201</title>
<ellipse fill="none" stroke="black" cx="542" cy="-162" rx="32.4942" ry="18"/>
<text text-anchor="middle" x="542" y="-158.3" font-family="Times,serif" font-size="14.00">0x201</text>
</g>
<!-- 0x202&#45;&gt;0x201 -->
<g id="edge85" class="edge"><title>0x202&#45;&gt;0x201</title>
<path fill="none" stroke="black" stroke-dasharray="5,2" d="M570.995,-216.411C564.937,-205.252 556.985,-190.604 550.941,-179.47"/>
</g>
<!-- 0x202&#45;&gt;0x11b -->
<g id="edge84" class="edge"><title>0x202&#45;&gt;0x11b</title>
<path fill="none" stroke="black" d="M582.84,-216.031C589.325,-179.128 606.202,-93.1867 626,-72 657.766,-38.0059 712.943,-25.7724 745.908,-21.4001"/>
</g>
<!-- 0x130 -->
<g id="node57" class="node"><title>0x130</title>
<ellipse fill="none" stroke="black" cx="466" cy="-90" rx="32.4942" ry="18"/>
<text text-anchor="middle" x="466" y="-86.3" font-family="Times,serif" font-size="14.00">0x130</text>
</g>
<!-- 0x201&#45;&gt;0x130 -->
<g id="edge87" class="edge"><title>0x201&#45;&gt;0x130</title>
<path fill="none" stroke="black" stroke-dasharray="1,5" d="M525.882,-146.155C512.985,-134.276 494.986,-117.697 482.094,-105.824"/>
</g>
<!-- 0x201&#45;&gt;0x11b -->
<g id="edge86" class="edge"><title>0x201&#45;&gt;0x11b</title>
<path fill="none" stroke="black" d="M546.342,-143.961C552.348,-123.837 565.128,-90.7389 588,-72 634.39,-33.9936 706.679,-23.2282 745.741,-20.1881"/>
</g>
<!-- 0x242&#45;&gt;0x130 -->
<g id="edge89" class="edge"><title>0x242&#45;&gt;0x130</title>
<path fill="none" stroke="black" stroke-dasharray="5,2" d="M432.205,-144.765C439.313,-133.456 448.754,-118.437 455.85,-107.147"/>
</g>
<!-- 0x242&#45;&gt;0x11b -->
<g id="edge88" class="edge"><title>0x242&#45;&gt;0x11b</title>
<path fill="none" stroke="black" d="M416.789,-143.916C411.894,-124.059 407.641,-91.5275 425,-72 467.329,-24.3835 671.548,-19.1731 745.875,-18.8789"/>
</g>
<!-- 0x12f&#45;&gt;0x11b -->
<g id="edge90" class="edge"><title>0x12f&#45;&gt;0x11b</title>
<path fill="none" stroke="black" d="M837.304,-145.667C826.186,-127.758 811.264,-97.3504 797,-72 790.196,-59.9084 781.946,-46.6584 776.522,-36.4313"/>
</g>
<!-- 0x12f&#45;&gt;0x11b -->
<g id="edge91" class="edge"><title>0x12f&#45;&gt;0x11b</title>
<path fill="none" stroke="black" stroke-dasharray="1,5" d="M849.537,-143.701C843.121,-125.592 828.754,-96.445 815,-72 808.196,-59.9084 799.946,-46.6584 792.272,-36.4313"/>
</g>
<!-- 0x130&#45;&gt;0x11b -->
<g id="edge92" class="edge"><title>0x130&#45;&gt;0x11b</title>
<path fill="none" stroke="black" d="M488.567,-76.6474C493.292,-74.9628 498.25,-73.3512 503,-72 589.944,-47.2651 696.308,-29.3996 745.735,-22.3368"/>
</g>
<!-- 0x130&#45;&gt;0x11b -->
<g id="edge93" class="edge"><title>0x130&#45;&gt;0x11b</title>
<path fill="none" stroke="black" stroke-dasharray="1,5" d="M494.292,-80.8737C502.941,-77.8086 512.32,-74.4695 521,-72 601.718,-49.0364 699.174,-31.9936 745.854,-24.0189"/>
</g>
</g>
</svg>
